<svg id="Layer_1" data-name="Layer 1" xmlns="http://www.w3.org/2000/svg" viewBox="0 0 40.33 34.71"><defs><style>.cls-1{fill:#fff;}</style></defs><title>cart-buy</title><path class="cls-1" d="M35.29,15.36H25a1.5,1.5,0,0,1,0-3H35.29a1.5,1.5,0,0,1,0,3Z"/><path class="cls-1" d="M33.83,22.07H18.17a1.49,1.49,0,0,1-1.34-.83L7.74,3H1.5a1.5,1.5,0,0,1,0-3H8.67A1.48,1.48,0,0,1,10,.83l9.1,18.24H32.78L36.69,8.3H20.5a1.5,1.5,0,1,1,0-3H38.83a1.5,1.5,0,0,1,1.23.64,1.49,1.49,0,0,1,.18,1.37l-5,13.77A1.5,1.5,0,0,1,33.83,22.07Z"/><path class="cls-1" d="M20,34.71a5,5,0,1,1,5-5A5,5,0,0,1,20,34.71Zm0-7.08a2,2,0,1,0,2,2A2,2,0,0,0,20,27.63Z"/><path class="cls-1" d="M33,34.71a5,5,0,1,1,5-5A5,5,0,0,1,33,34.71Zm0-7.08a2,2,0,1,0,2,2A2,2,0,0,0,33,27.63Z"/></svg>