<svg id="Layer_1" data-name="Layer 1" xmlns="http://www.w3.org/2000/svg" viewBox="0 0 44.49 33.23"><defs><style>.cls-1{fill:#b4b9bf;}.cls-2{fill:#ff8500;}.cls-3{fill:#fff;}</style></defs><title>compare</title><path class="cls-1" d="M16,8.67H7.17a1.5,1.5,0,0,1,0-3H16a1.5,1.5,0,0,1,0,3Z" transform="translate(0 0)"/><path class="cls-1" d="M37.53,8.67H28.69a1.5,1.5,0,0,1,0-3h8.84a1.5,1.5,0,0,1,0,3Z" transform="translate(0 0)"/><path class="cls-1" d="M7.17,33.23A7.08,7.08,0,0,1,1,29.65a7.06,7.06,0,0,1,0-7.16l6.2-10.75,6.21,10.75A7.16,7.16,0,0,1,7.17,33.23Zm0-15.49L3.57,24a4.16,4.16,0,0,0,3.6,6.24A4.16,4.16,0,0,0,10.78,24Z" transform="translate(0 0)"/><path class="cls-2" d="M37.31,33.23A7.16,7.16,0,0,1,31.1,22.49l6.21-10.75,6.21,10.75a7.16,7.16,0,0,1-6.21,10.74Zm0-15.49L33.7,24a4.17,4.17,0,1,0,7.22,0Z" transform="translate(0 0)"/><path class="cls-1" d="M22.39,26.07a1.5,1.5,0,0,1-1.5-1.5V14.74a1.5,1.5,0,0,1,3,0v9.83A1.5,1.5,0,0,1,22.39,26.07Z" transform="translate(0 0)"/><circle class="cls-3" cx="22.35" cy="7.84" r="6.34"/><path class="cls-1" d="M22.35,15.68a7.84,7.84,0,1,1,7.84-7.84A7.85,7.85,0,0,1,22.35,15.68ZM22.35,3a4.84,4.84,0,1,0,4.84,4.84A4.84,4.84,0,0,0,22.35,3Z" transform="translate(0 0)"/><circle class="cls-1" cx="22.35" cy="7.84" r="2.44"/></svg>