<svg id="Layer_1" data-name="Layer 1" xmlns="http://www.w3.org/2000/svg" viewBox="0 0 28.25 39.03"><defs><style>.cls-1{fill:#b4b9bf;}</style></defs><title>guarantee</title><path class="cls-1" d="M14.13,39a1.43,1.43,0,0,1-.64-.15L6.67,35.64A11.74,11.74,0,0,1,0,25.09V1.5A1.5,1.5,0,0,1,1.5,0H26.75a1.5,1.5,0,0,1,1.5,1.5V25.09a11.74,11.74,0,0,1-6.67,10.55h0l-6.81,3.24A1.43,1.43,0,0,1,14.13,39ZM3,3V25.09a8.76,8.76,0,0,0,5,7.85l6.18,2.93,6.17-2.93a8.74,8.74,0,0,0,4.95-7.85V3ZM20.94,34.29h0Z"/><path class="cls-1" d="M12.28,25.49a1.74,1.74,0,0,1-.39,0,1.49,1.49,0,0,1-.94-.76l-.56-1.09-1.23.06A1.52,1.52,0,0,1,8,23.21a1.5,1.5,0,0,1-.44-1.13l.06-1.23-1.09-.56A1.49,1.49,0,0,1,6,18.15l.66-1-.66-1A1.49,1.49,0,0,1,6.56,14l1.09-.57-.06-1.22a1.51,1.51,0,0,1,1.57-1.57l1.23.06L11,9.56a1.48,1.48,0,0,1,.94-.77,1.5,1.5,0,0,1,1.2.19l1,.66,1-.66a1.5,1.5,0,0,1,1.2-.19,1.48,1.48,0,0,1,.94.77l.56,1.09,1.23-.06a1.54,1.54,0,0,1,1.13.44,1.5,1.5,0,0,1,.44,1.13l-.06,1.22,1.09.57a1.49,1.49,0,0,1,.57,2.14l-.66,1,.66,1a1.49,1.49,0,0,1-.57,2.14l-1.09.56.06,1.23a1.51,1.51,0,0,1-1.57,1.57l-1.23-.06-.56,1.09a1.49,1.49,0,0,1-2.14.57l-1-.66-1,.66A1.5,1.5,0,0,1,12.28,25.49Zm-1-4.94a1.5,1.5,0,0,1,1.33.81l.25.48.46-.3a1.51,1.51,0,0,1,1.62,0l.45.29.25-.48a1.51,1.51,0,0,1,1.4-.81l.55,0,0-.55a1.49,1.49,0,0,1,.81-1.4l.48-.25-.29-.45a1.49,1.49,0,0,1,0-1.62l.29-.46-.48-.25a1.5,1.5,0,0,1-.81-1.4l0-.54-.55,0a1.51,1.51,0,0,1-1.41-.82l-.24-.48-.45.29a1.49,1.49,0,0,1-1.62,0l-.46-.29-.25.48a1.46,1.46,0,0,1-1.4.82l-.55,0,0,.54a1.5,1.5,0,0,1-.81,1.4l-.48.25.29.46a1.49,1.49,0,0,1,0,1.62l-.29.45.48.25a1.49,1.49,0,0,1,.81,1.4l0,.55.55,0Z"/></svg>