<?xml version="1.0" encoding="utf-8"?>
<!-- Generator: Adobe Illustrator 22.1.0, SVG Export Plug-In . SVG Version: 6.00 Build 0)  -->
<svg version="1.1" id="Layer_2_copy" xmlns="http://www.w3.org/2000/svg" xmlns:xlink="http://www.w3.org/1999/xlink" x="0px"
	 y="0px" viewBox="0 0 48.5 32.8" style="enable-background:new 0 0 48.5 32.8;" xml:space="preserve">
<style type="text/css">
	.st0{fill:none;stroke:#5A5959;stroke-width:2;stroke-miterlimit:10;}
	.st1{fill:none;stroke:#5A5959;stroke-width:2;stroke-linecap:round;stroke-miterlimit:10;}
</style>
<circle class="st0" cx="8.1" cy="27.4" r="3.5"/>
<circle class="st0" cx="8.1" cy="27.3" r="1.1"/>
<circle class="st0" cx="15.5" cy="27.4" r="3.5"/>
<circle class="st0" cx="15.5" cy="27.3" r="1.1"/>
<circle class="st0" cx="38.6" cy="27.4" r="3.5"/>
<circle class="st0" cx="38.6" cy="27.3" r="1.1"/>
<line class="st0" x1="35.1" y1="27.1" x2="19.2" y2="27.1"/>
<rect x="24.6" y="14.7" class="st0" width="3.7" height="8.6"/>
<line class="st1" x1="28.2" y1="1.8" x2="28.2" y2="23.2"/>
<polyline class="st1" points="23.1,7.1 26.4,10.5 26.4,14.6 "/>
<line class="st1" x1="10.6" y1="23.2" x2="16.2" y2="20.1"/>
<path class="st1" d="M2.4,23.2h29.8l1.9-0.9c2.9-1.4,6.3-1,8.9,0.9l1.7,1.2c0.3,0.6,1.1,0.7,1.6,0.3l0,0v-3.2c0-0.8-0.7-1.5-1.5-1.5
	l0,0v-2.5l0.2-0.1c0.8-0.5,1.3-1.4,1.3-2.3V6.8v0c0-1.7-1.4-3.1-3.1-3.1h-1.5H31.4c-1.8,0-3.3,1.5-3.3,3.3v16.3"/>
<polyline class="st0" points="46.2,12.1 40.2,12.1 38.6,10.9 36.4,10.9 36.4,22 "/>
<line class="st0" x1="35.6" y1="3.7" x2="35.6" y2="10.9"/>
<path class="st0" d="M37.8,3.7"/>
<line class="st0" x1="38" y1="3.7" x2="38" y2="21.3"/>
<path class="st0" d="M30.1,16.3h-0.3v-2.4h2.7v0C32.5,15.2,31.4,16.3,30.1,16.3z"/>
<line class="st0" x1="29.5" y1="18.2" x2="32.3" y2="18.2"/>
<line class="st0" x1="29.5" y1="20.2" x2="32.3" y2="20.2"/>
<line class="st1" x1="46.2" y1="14.3" x2="42.1" y2="14.3"/>
<line class="st1" x1="46.2" y1="16.1" x2="43.7" y2="16.1"/>
<line class="st1" x1="30.4" y1="7.1" x2="35.1" y2="7.1"/>
<line class="st1" x1="29.8" y1="9.1" x2="35.1" y2="9.1"/>
</svg>
