<?xml version="1.0" encoding="utf-8"?>
<!-- Generator: Adobe Illustrator 22.1.0, SVG Export Plug-In . SVG Version: 6.00 Build 0)  -->
<svg version="1.1" id="Layer_4" xmlns="http://www.w3.org/2000/svg" xmlns:xlink="http://www.w3.org/1999/xlink" x="0px" y="0px"
	 viewBox="0 0 24.5 32.3" style="enable-background:new 0 0 24.5 32.3;" xml:space="preserve">
<style type="text/css">
	.st0{fill:none;stroke:#5A5959;stroke-width:2;stroke-miterlimit:10;}
	.st1{fill:none;stroke:#5A5959;stroke-miterlimit:10;}
</style>
<polyline class="st0" points="6.8,27.1 6.8,29.9 22.1,29.9 22.1,13 14.6,7.5 6.8,7.6 6.8,13.6 "/>
<polygon class="st0" points="13.9,7.3 6.8,7.3 6.8,3.4 13.9,3.3 "/>
<line class="st1" x1="9.3" y1="3.3" x2="9.3" y2="6.8"/>
<line class="st1" x1="11.2" y1="3.3" x2="11.2" y2="6.8"/>
<path class="st1" d="M12.7,6.8"/>
<path class="st1" d="M12.2,3.3"/>
<path class="st0" d="M6.9,12.5L2.9,19c-2,3.2,0.3,7.3,4.1,7.3h0c3.8,0,6.1-4.1,4.1-7.3L6.9,12.5z"/>
<line class="st1" x1="9.7" y1="16.8" x2="22.1" y2="16.8"/>
<line class="st1" x1="22.1" y1="22.4" x2="11.7" y2="22.4"/>
</svg>
