<?xml version="1.0" encoding="utf-8"?>
<!-- Generator: Adobe Illustrator 22.1.0, SVG Export Plug-In . SVG Version: 6.00 Build 0)  -->
<svg version="1.1" id="Layer_2" xmlns="http://www.w3.org/2000/svg" xmlns:xlink="http://www.w3.org/1999/xlink" x="0px" y="0px"
	 viewBox="0 0 40.6 17.7" style="enable-background:new 0 0 40.6 17.7;" xml:space="preserve">
<style type="text/css">
	.st0{fill:none;stroke:#5A5959;stroke-width:2;stroke-miterlimit:10;}
	.st1{fill:none;stroke:#5A5959;stroke-miterlimit:10;}
	.st2{fill:none;stroke:#5A5959;stroke-width:2;stroke-linecap:round;stroke-miterlimit:10;}
</style>
<line class="st0" x1="29.6" y1="13.3" x2="12.9" y2="13.3"/>
<path class="st0" d="M6.3,13.3c0,0-4.9-0.1-4.9-2.8c0-1.5,0-3,0-4c0-0.8,0.6-1.4,1.4-1.4h2c0,0,6.3-3.7,13-3.5
	c4.1,0.4,4.6,0.8,8.7,3.3C28,5.8,31.9,6.7,34.3,7c3,0.3,5.2,2.6,4.7,5.6c0,0.1-0.1,0.6-0.1,0.7h-3.2"/>
<path class="st0" d="M3.2,10.1h-1V7.4h1.7c0.5,0,1,0.4,1,1v0C4.9,9.4,4.1,10.1,3.2,10.1z"/>
<circle class="st0" cx="9.5" cy="13.3" r="3"/>
<circle class="st1" cx="9.5" cy="13.2" r="0.8"/>
<circle class="st0" cx="32.3" cy="13.3" r="3"/>
<circle class="st1" cx="32.3" cy="13.2" r="0.8"/>
<path class="st2" d="M7.5,3.8c0,0,1.3,3.1,3.4,3.1s22.2,0,22.2,0"/>
<line class="st2" x1="10.3" y1="9.8" x2="11.7" y2="2.3"/>
<polyline class="st2" points="19.8,12.9 19.8,6.5 18.2,1.9 "/>
<path class="st0" d="M38.1,9.5C38,10,37.5,10.3,37,10.2c-0.5-0.1-0.8-0.6-0.7-1.1s0.6-0.8,1.1-0.7"/>
</svg>
