<svg id="Layer_1" data-name="Layer 1" xmlns="http://www.w3.org/2000/svg" viewBox="0 0 47.5 24.62"><defs><style>.cls-1{fill:#b4b9bf;}.cls-2{fill:#ff8500;}</style></defs><title>new</title><path class="cls-1" d="M46,24.62H7.5a1.51,1.51,0,0,1-1.31-.77L.19,13a1.51,1.51,0,0,1,0-1.46L6.19.77A1.51,1.51,0,0,1,7.5,0H46a1.5,1.5,0,0,1,1.5,1.5V23.12A1.5,1.5,0,0,1,46,24.62Zm-37.62-3H44.5V3H8.38L3.22,12.31Z" transform="translate(0)"/><path class="cls-2" d="M11.89,17.17a4.8,4.8,0,1,1,4.8-4.8A4.8,4.8,0,0,1,11.89,17.17Zm0-6.6a1.8,1.8,0,1,0,1.8,1.8A1.81,1.81,0,0,0,11.89,10.57Z" transform="translate(0)"/><path class="cls-1" d="M23.33,15.17l-2.46-3.38v3.38h-2V8.5H21l2.32,3.16V8.5h2v6.67Z" transform="translate(0)"/><path class="cls-1" d="M26.35,15.17V8.5h5.06v1.76h-3v.66h3v1.76h-3v.73h3v1.76Z" transform="translate(0)"/><path class="cls-1" d="M37.4,15.17l-.86-3.78-.86,3.78H33.56L31.65,8.5h2.26l.86,4.08,1-4.08H37.3l1,4.08.85-4.08h2.27l-1.91,6.67Z" transform="translate(0)"/></svg>