<svg id="Layer_1" data-name="Layer 1" xmlns="http://www.w3.org/2000/svg" viewBox="0 0 52.69 25.38"><defs><style>.cls-1{fill:#b4b9bf;}</style></defs><title>passenger-car</title><path class="cls-1" d="M35.22,21H17.4a1.5,1.5,0,1,1,0-3H35.22a1.5,1.5,0,0,1,0,3Z" transform="translate(0 0.03)"/><path class="cls-1" d="M7.34,21c-.34,0-.69,0-1,0C.62,20.71,0,17.69,0,16.41c0-4,4.55-7.7,7.68-8.46.41-.1.9-.19,1.45-.29A22.23,22.23,0,0,0,19.54,3.38,15.83,15.83,0,0,1,27.8.15c.93-.1,2-.16,3.05-.18A16.18,16.18,0,0,1,40,2.64l3.2,2.11a9.25,9.25,0,0,0,4.14,1.44L49,6.34a4.05,4.05,0,0,1,3.69,4.05v6c0,.23-.2,4.61-7.69,4.61a1.5,1.5,0,0,1,0-3c4.3,0,4.69-1.63,4.69-1.65v-6a1.07,1.07,0,0,0-1-1.07l-1.65-.15a12.25,12.25,0,0,1-5.51-1.91l-3.2-2.12A13.11,13.11,0,0,0,30.9,3c-1,0-1.95.08-2.81.16a13,13,0,0,0-6.72,2.62,25.12,25.12,0,0,1-11.7,4.86c-.49.09-.93.17-1.3.26C6.26,11.38,3,14.07,3,16.41,3,17.69,5.44,18,6.49,18a11.49,11.49,0,0,0,1.66,0,1.5,1.5,0,0,1,.22,3C8,21,7.68,21,7.34,21Z" transform="translate(0 0.03)"/><path class="cls-1" d="M13,25.35a5.81,5.81,0,1,1,5.81-5.81A5.82,5.82,0,0,1,13,25.35Zm0-8.62a2.81,2.81,0,1,0,2.81,2.81A2.81,2.81,0,0,0,13,16.73Z" transform="translate(0 0.03)"/><path class="cls-1" d="M40,25.35a5.81,5.81,0,1,1,5.81-5.81A5.82,5.82,0,0,1,40,25.35Zm0-8.62a2.81,2.81,0,1,0,2.81,2.81A2.81,2.81,0,0,0,40,16.73Z" transform="translate(0 0.03)"/><path class="cls-1" d="M30.22,9.87H13a1.5,1.5,0,0,1,0-3H30.22a1.5,1.5,0,1,1,0,3Z" transform="translate(0 0.03)"/></svg>