<svg id="Layer_1" data-name="Layer 1" xmlns="http://www.w3.org/2000/svg" viewBox="0 0 37.29 37.29"><defs><style>.cls-1{fill:#ff8500;}</style></defs><title>summer</title><path class="cls-1" d="M18.65,25.65a7,7,0,1,1,7-6.95A7,7,0,0,1,18.65,25.65Zm0-10.9a3.95,3.95,0,1,0,4,3.95A4,4,0,0,0,18.65,14.75Z"/><path class="cls-1" d="M18.65,9.72a1.5,1.5,0,0,1-1.5-1.5V1.5a1.5,1.5,0,0,1,3,0V8.22A1.5,1.5,0,0,1,18.65,9.72Z"/><path class="cls-1" d="M18.65,37.29a1.5,1.5,0,0,1-1.5-1.5V29.08a1.5,1.5,0,0,1,3,0v6.71A1.5,1.5,0,0,1,18.65,37.29Z"/><path class="cls-1" d="M26,12.77A1.51,1.51,0,0,1,25,12.33a1.49,1.49,0,0,1,0-2.12l4.75-4.75a1.5,1.5,0,1,1,2.12,2.12l-4.75,4.75A1.51,1.51,0,0,1,26,12.77Z"/><path class="cls-1" d="M6.52,32.27a1.51,1.51,0,0,1-1.06-.44,1.49,1.49,0,0,1,0-2.12L10.21,25a1.5,1.5,0,0,1,2.12,2.12L7.58,31.83A1.51,1.51,0,0,1,6.52,32.27Z"/><path class="cls-1" d="M35.79,20.15H29.08a1.5,1.5,0,0,1,0-3h6.71a1.5,1.5,0,0,1,0,3Z"/><path class="cls-1" d="M8.22,20.15H1.5a1.5,1.5,0,0,1,0-3H8.22a1.5,1.5,0,0,1,0,3Z"/><path class="cls-1" d="M30.77,32.27a1.51,1.51,0,0,1-1.06-.44L25,27.08A1.5,1.5,0,0,1,27.08,25l4.75,4.75a1.49,1.49,0,0,1,0,2.12A1.51,1.51,0,0,1,30.77,32.27Z"/><path class="cls-1" d="M11.27,12.77a1.51,1.51,0,0,1-1.06-.44L5.46,7.58A1.5,1.5,0,1,1,7.58,5.46l4.75,4.75a1.49,1.49,0,0,1,0,2.12A1.51,1.51,0,0,1,11.27,12.77Z"/></svg>