<svg id="Layer_1" data-name="Layer 1" xmlns="http://www.w3.org/2000/svg" viewBox="0 0 52.1 36.11"><defs><style>.cls-1{fill:#ff8900;}</style></defs><title>ukraine</title><path class="cls-1" d="M34.27,36.11a2.06,2.06,0,0,1-1.76-.69,1.51,1.51,0,0,1-1-1.51,3.38,3.38,0,0,1,.24-1.09,2.71,2.71,0,0,1-1.1-.74,2.12,2.12,0,0,1-1.41-.89A1.65,1.65,0,0,1,29,29.91a1.69,1.69,0,0,1,.6-1l.08-.09a2.45,2.45,0,0,1-1.47-.44,2.25,2.25,0,0,1-1.61-1.19.94.94,0,0,1-.12-.22l-.18.11a1.47,1.47,0,0,1-.29.4,4,4,0,0,0-.46.59,7.31,7.31,0,0,1-.54.73,2.88,2.88,0,0,0-.28.38,2.3,2.3,0,0,1-1,1l0,.07v.41a1.64,1.64,0,0,1-1.13,1.66,1.62,1.62,0,0,1-1.34-.18l-.28.24a2.19,2.19,0,0,1-1.61.58,1.84,1.84,0,0,1-1.26-.75h0a1.79,1.79,0,0,1-1.19-2.41,2,2,0,0,1,.76-1.3l.05-.07.06-.09a1.46,1.46,0,0,1,.16-.19,2.38,2.38,0,0,1,.3-.32,1.08,1.08,0,0,0,.13-.15c-.08-1-.08-1.1-.08-1.16V25.35A1.49,1.49,0,0,1,20.42,24l.44.22c0-.07,0-.15,0-.22s-.17-.26-.26-.42a1.89,1.89,0,0,1-1.1-.91,2.05,2.05,0,0,1-.05-2,2.72,2.72,0,0,0-.78-.34,1.17,1.17,0,0,1-.2-.06,7.6,7.6,0,0,1-1-.55,1.44,1.44,0,0,0-.3-.17L17,19.52a.62.62,0,0,0-.38,0,1.1,1.1,0,0,1-.26.06,7.89,7.89,0,0,1-2.06,0,2.15,2.15,0,0,1-.35.21,2.81,2.81,0,0,1-.43.33,3.46,3.46,0,0,1-1.21.81,2,2,0,0,1-1.57,0,2,2,0,0,1-2,.33l-.33-.09a2.65,2.65,0,0,1-.79-.32,3.85,3.85,0,0,1-.64-.15,2.19,2.19,0,0,1-1,0,2.54,2.54,0,0,1-1.29-.59l-.1-.07a2.7,2.7,0,0,1-.91,0l-.09,0a2.26,2.26,0,0,1-.73,0,2,2,0,0,1-1.66-1L1.13,19a1.83,1.83,0,0,0-.2-.21A2.53,2.53,0,0,1,0,17a1.73,1.73,0,0,1,0-.32,5.35,5.35,0,0,1,.76-1.79l.06-.09a2.74,2.74,0,0,0,.36-.59A2.43,2.43,0,0,1,2.1,13a2.76,2.76,0,0,1,.06-.73,3.21,3.21,0,0,1,.69-1.31L3,10.69a3.2,3.2,0,0,1,1.24-1,5.26,5.26,0,0,0,.52-.33l.12-.08a6.65,6.65,0,0,0,.88-.62.77.77,0,0,1,0-.15,3.62,3.62,0,0,1,.08-1.12.44.44,0,0,0,0-.1A2.49,2.49,0,0,1,6,5.55v0a3.26,3.26,0,0,1,.38-2.85A2.06,2.06,0,0,1,8,1.78c.25-.1.48-.17.72-.24a5.64,5.64,0,0,0,.66-.22,1.86,1.86,0,0,1,1.69,0,16,16,0,0,1,1.69.4l.49.13a8.74,8.74,0,0,1,1.36.42,4.06,4.06,0,0,0,1.14.32,4.75,4.75,0,0,1,1.12.3l.16.06.16,0a9.09,9.09,0,0,1,1.83.59,1.9,1.9,0,0,1,.84,0A7.9,7.9,0,0,1,21,3.81a13.2,13.2,0,0,1,1.73.42l.13,0c.16,0,.36-.06.58-.07a2.88,2.88,0,0,1,.11-.49,2.19,2.19,0,0,1,.63-.9l0,0a2,2,0,0,1,1-.95,2.07,2.07,0,0,1,1.65-.41,3.87,3.87,0,0,0,.74,0h0a3.32,3.32,0,0,1,.5-.32A2.27,2.27,0,0,1,29.53.74,2.93,2.93,0,0,0,30,.61h0A1.77,1.77,0,0,1,31.41,0a2,2,0,0,1,1.46.72H33a1.51,1.51,0,0,1,1.08.46l1.33,1.38a1.48,1.48,0,0,1,.41,1.23,1.52,1.52,0,0,1-.45.89l0,.13a2.59,2.59,0,0,1,1,.22c.08,0,.2.08.43.15a1.86,1.86,0,0,1,1.58,1.87,3.79,3.79,0,0,1,.34.84h.1l.27,0a9.44,9.44,0,0,0,1.19.15l0,0a1.88,1.88,0,0,1,1.06-.42l.24-.07c.49-.17,1.78-.61,2.44.53l.62.54.13.12L45,9l.47,0c.3,0,.68.07,1.06.07h.37a1.49,1.49,0,0,1,.77.21L49,10.1l.13,0c.21,0,.52.14,1.07.31S51.92,11,52.08,12a1.57,1.57,0,0,1-.47,1.39,3.29,3.29,0,0,1-.29.52,1.5,1.5,0,0,1,0,1.14,1.77,1.77,0,0,0-.06.17,1.55,1.55,0,0,0,.06.31,10.11,10.11,0,0,1,.39,1.4,1.39,1.39,0,0,1,0,.41,6.86,6.86,0,0,0,0,1.11v.11a1.73,1.73,0,0,1-.54,1.31,1.88,1.88,0,0,1-1.5.45h-.19a4.83,4.83,0,0,0-1,.14,1.65,1.65,0,0,1-.61.72l-.09.06a3.54,3.54,0,0,0-.47.49,2.23,2.23,0,0,1,.1.85,1.69,1.69,0,0,1-1.17,1.7,1.59,1.59,0,0,1-1.09-.15,1.5,1.5,0,0,0-.32.19,2.3,2.3,0,0,1-1,.48l-.19.08a6.09,6.09,0,0,1-.91.32l-.82.54-.16.11a5.36,5.36,0,0,1-1,.5,5.71,5.71,0,0,0-.67.3,4.2,4.2,0,0,0-.37.21l-.27.17a2.12,2.12,0,0,1-1,1.19,2.3,2.3,0,0,1,.47.54h.26a3,3,0,0,0,.54,0l.47-.07a2.84,2.84,0,0,1,1-.2,2,2,0,0,1,1.59.82A1.48,1.48,0,0,1,43,30.68l-.24.67c-.22.59-.51,1.38-1.39,1.57l-.16,0a4.48,4.48,0,0,1-.64.07h0a2.51,2.51,0,0,1-1.13-.3.15.15,0,0,1,0,.09,1.6,1.6,0,0,1-1.52.9l-.12,0a4.49,4.49,0,0,0-.88.33l-.13.06-.05,0a2.33,2.33,0,0,1-2.49,2Zm-.44-.86-.21.12Zm-1.67-3.13Zm1.47-2.37.16.07a1.7,1.7,0,0,1,.92,1.47,3.84,3.84,0,0,1,0,.5,7.22,7.22,0,0,1,.93-.45,8.68,8.68,0,0,1,1-.4l-.12-.21-.06-.14-.06-.14-.07-.05a3.83,3.83,0,0,1-.48-.43,7.23,7.23,0,0,1-1-.49l-.51-.15-.14,0A1.7,1.7,0,0,1,33.63,29.75ZM28.4,28.41h0Zm-7-.5V28a1.62,1.62,0,0,1,0,.22l.12-.16a.69.69,0,0,1,.11-.13Zm2.69-.36Zm0,0Zm10.63-1.2Zm-2.95-.51h.13a6.3,6.3,0,0,1,1.15.21,1.65,1.65,0,0,1,.49-.54,1.6,1.6,0,0,1,1.7-.08l.18,0a4.38,4.38,0,0,1,.81.24l.19,0a1.29,1.29,0,0,1,.33-.17,2.22,2.22,0,0,1,1-1l.36-.21.57-.34c.31-.16.65-.31,1-.44a5.46,5.46,0,0,0,.5-.22l.15-.1c.39-.26.93-.62,1.14-.74a1.33,1.33,0,0,1,.43-.17,3.33,3.33,0,0,0,.63-.21,5.57,5.57,0,0,1,.62-.23h0a4,4,0,0,1,1-.57,2.85,2.85,0,0,1,.69-1.24c.3-.35.52-.6.7-.79A2.66,2.66,0,0,1,45.6,19a1.89,1.89,0,0,1,1.34-1.14,7.29,7.29,0,0,1,1.77-.44v0a6.82,6.82,0,0,0-.26-.88,4.43,4.43,0,0,1-.21-1.34,1.09,1.09,0,0,1,0-.18v0c0-.07-.07-.15-.1-.23a1.78,1.78,0,0,1,0-1.77,2.84,2.84,0,0,1-.75-.34l-.86-.52c-.28,0-.54,0-.77,0a1.16,1.16,0,0,1-.3.18,1.84,1.84,0,0,1-2.12-.68l-.67-.73-.41-.35-.25.07a2,2,0,0,1-1.68.52,13.44,13.44,0,0,1-1.65-.18h-1c-1.39,0-1.72-1.45-1.84-2l0-.1a1.67,1.67,0,0,0-.18-.44l-.06-.09a2.3,2.3,0,0,1-.16-.37l-.24-.1H35a3.26,3.26,0,0,0-.38,0A1.87,1.87,0,0,1,33,7.46,1.83,1.83,0,0,1,32.41,6V5.73A1.93,1.93,0,0,1,32,4.94a1.83,1.83,0,0,1,.13-1.22h0a1.54,1.54,0,0,1-.93-.32L31,3.46a7.6,7.6,0,0,1-1.43.3l-.12,0a2.2,2.2,0,0,1-1.72.61,6.14,6.14,0,0,1-1,0,2.21,2.21,0,0,1-.31.39,4.45,4.45,0,0,1,.12,1.15.57.57,0,0,1,0,.13,2.45,2.45,0,0,1-.92,1.67A1.53,1.53,0,0,1,24.24,8a1.49,1.49,0,0,1-.95-.8,2.74,2.74,0,0,1-1.48-.08,9,9,0,0,0-1.45-.35A1.39,1.39,0,0,1,20,6.66l-.44-.16a2.41,2.41,0,0,1-1.52-.14l-.11,0a5.34,5.34,0,0,0-1.22-.42,3.24,3.24,0,0,1-.83-.22,2.51,2.51,0,0,0-.46-.14,7.19,7.19,0,0,1-2-.55,9.55,9.55,0,0,0-.92-.26L12,4.58a12.46,12.46,0,0,0-1.61-.38h-.06l-.72.22a4.66,4.66,0,0,0-.49.16l-.23.09c0,.08,0,.15,0,.21A3.08,3.08,0,0,1,9,5.62a2.42,2.42,0,0,1-.21.94,2.81,2.81,0,0,1,0,1.33,1.58,1.58,0,0,1,.29.79,2.16,2.16,0,0,1-.74,1.65,10.21,10.21,0,0,1-1.84,1.44,7,7,0,0,1-.78.48l-.25.15a2.94,2.94,0,0,1-.3.42l-.07.09h0a2.26,2.26,0,0,1-.24,1.79l-.07.09a2.5,2.5,0,0,1-.91.74,7.12,7.12,0,0,1-.63,1.05.86.86,0,0,0-.1.16,2.61,2.61,0,0,1,.27.3l.51,0a2,2,0,0,1,2,.24,6.29,6.29,0,0,1,.56.4,2.15,2.15,0,0,1,1.35.13,1.59,1.59,0,0,0,.47.08,2.46,2.46,0,0,1,1,.28,2,2,0,0,1,2.07-.29l.06,0a2.29,2.29,0,0,1,.43-.33,3,3,0,0,1,.63-.45,2.43,2.43,0,0,1,1.74-.56,1,1,0,0,1,.24,0,4.58,4.58,0,0,0,1.28,0,3.65,3.65,0,0,1,2.07,0A3.82,3.82,0,0,1,19,17.2a4.08,4.08,0,0,0,.49.28,5.67,5.67,0,0,1,2,1,1.75,1.75,0,0,1,.24.23l.08.1a2.47,2.47,0,0,1,.65,2.35,2.65,2.65,0,0,1,.61.78c.11.2.19.32.25.41a2.27,2.27,0,0,1,.48,1.45.5.5,0,0,0,.09.29l.09.14q.15.29.27.54c.14-.09.28-.16.39-.22a4.71,4.71,0,0,0,.46-.28,2.1,2.1,0,0,1,1.25-.43l.15,0a2.75,2.75,0,0,1,0-.53v-.1a1.27,1.27,0,0,1,0-.2v-.3a1.49,1.49,0,0,1,.5-1.12,1.51,1.51,0,0,1,1.18-.37A1.86,1.86,0,0,1,30.05,23v.67a.37.37,0,0,1,0,.11,1.45,1.45,0,0,1,0,.28,1.5,1.5,0,0,1,1,.35A2,2,0,0,1,31.76,25.84Zm3.53-.36ZM26.6,23.34ZM13.39,20.2h0ZM3.15,17.1,3,18.59l.21-1.47,0,0Zm45-2.53v0ZM8.73,6.3ZM23,4.34h0Zm4.07-.22h0ZM16.93,2.91Zm7.18,0ZM10.54,1.21Z"/></svg>