<svg xmlns="http://www.w3.org/2000/svg"><symbol id="sprite-call" viewBox="0 0 12.1 16.6"><title>call</title><path d="M3.7 1.9l1.7 3.4-1.3.6 2.8 5.6 1.4-.7 1.8 3.4s-1 .6-2.1.6c-.6 0-1.2-.2-1.7-.7C4.9 12.8 1.8 8.6 1.6 5c0 0-.1-2.5 2.1-3.1M4.5.1L3.4.4C.7 1.1.1 3.7.1 5c.2 4.3 3.7 8.8 5 10.2.7.8 1.7 1.2 2.8 1.2 1.5 0 2.8-.8 2.9-.9l1.1-.7-.6-1.2-1.8-3.4-.6-1.4-1.3.7-1.5-2.9 1.3-.7-.6-1.3-1.7-3.4L4.5.1z" fill="#fff"/></symbol><symbol id="sprite-call2" viewBox="0 0 11.81 16.26"><title>call2</title><path d="M3.62 1.76L5.3 5.11l-1.3.7 2.78 5.57 1.37-.69 1.75 3.43a4.32 4.32 0 0 1-2.08.64A2.31 2.31 0 0 1 6.05 14C4.73 12.66 1.68 8.5 1.5 4.83c0 0-.1-2.49 2.12-3.07M4.41 0L3.23.31A4.52 4.52 0 0 0 0 4.9c.21 4.32 3.66 8.81 5 10.17a3.79 3.79 0 0 0 2.81 1.19 5.84 5.84 0 0 0 2.9-.88l1.13-.74-.61-1.2L9.45 10l-.68-1.32-1.33.67L6 6.46l1.32-.68-.68-1.34L5 1.09 4.41 0z"/></symbol><symbol id="sprite-cancel" viewBox="0 0 47.971 47.971"><title>cancel</title><path d="M28.228 23.986L47.092 5.122a2.998 2.998 0 0 0 0-4.242 2.998 2.998 0 0 0-4.242 0L23.986 19.744 5.121.88a2.998 2.998 0 0 0-4.242 0 2.998 2.998 0 0 0 0 4.242l18.865 18.864L.879 42.85a2.998 2.998 0 1 0 4.242 4.241l18.865-18.864L42.85 47.091c.586.586 1.354.879 2.121.879s1.535-.293 2.121-.879a2.998 2.998 0 0 0 0-4.242L28.228 23.986z"/></symbol><symbol id="sprite-cart-buy" viewBox="0 0 40.33 34.71"><defs><style>.cls-1{fill:#fff}</style></defs><title>cart-buy</title><path class="cls-1" d="M35.29 15.36H25a1.5 1.5 0 0 1 0-3h10.29a1.5 1.5 0 0 1 0 3z"/><path class="cls-1" d="M33.83 22.07H18.17a1.49 1.49 0 0 1-1.34-.83L7.74 3H1.5a1.5 1.5 0 0 1 0-3h7.17A1.48 1.48 0 0 1 10 .83l9.1 18.24h13.68L36.69 8.3H20.5a1.5 1.5 0 1 1 0-3h18.33a1.5 1.5 0 0 1 1.23.64 1.49 1.49 0 0 1 .18 1.37l-5 13.77a1.5 1.5 0 0 1-1.41.99zM20 34.71a5 5 0 1 1 5-5 5 5 0 0 1-5 5zm0-7.08a2 2 0 1 0 2 2 2 2 0 0 0-2-2zm13 7.08a5 5 0 1 1 5-5 5 5 0 0 1-5 5zm0-7.08a2 2 0 1 0 2 2 2 2 0 0 0-2-2z"/></symbol><symbol id="sprite-cart" viewBox="0 0 40.33 34.71"><title>cart</title><path d="M35.29 15.36H25a1.5 1.5 0 0 1 0-3h10.29a1.5 1.5 0 0 1 0 3z" fill="#ff8500"/><path d="M33.83 22.07H18.17a1.49 1.49 0 0 1-1.34-.83L7.74 3H1.5a1.5 1.5 0 0 1 0-3h7.17A1.48 1.48 0 0 1 10 .83l9.1 18.24h13.68L36.69 8.3H20.5a1.5 1.5 0 1 1 0-3h18.33a1.5 1.5 0 0 1 1.23.64 1.49 1.49 0 0 1 .18 1.37l-5 13.77a1.5 1.5 0 0 1-1.41.99zM20 34.71a5 5 0 1 1 5-5 5 5 0 0 1-5 5zm0-7.08a2 2 0 1 0 2 2 2 2 0 0 0-2-2zm13 7.08a5 5 0 1 1 5-5 5 5 0 0 1-5 5zm0-7.08a2 2 0 1 0 2 2 2 2 0 0 0-2-2z" fill="#b4b9bf"/></symbol><symbol id="sprite-checked" viewBox="0 0 26 26"><title>checked</title><path d="M.3 14c-.2-.2-.3-.5-.3-.7s.1-.5.3-.7l1.4-1.4c.4-.4 1-.4 1.4 0l.1.1 5.5 5.9c.2.2.5.2.7 0L22.8 3.3h.1c.4-.4 1-.4 1.4 0l1.4 1.4c.4.4.4 1 0 1.4l-16 16.6c-.2.2-.4.3-.7.3-.3 0-.5-.1-.7-.3L.5 14.3.3 14z"/></symbol><symbol id="sprite-compare" viewBox="0 0 44.49 33.23"><defs><style>.cls-1{fill:#b4b9bf}</style></defs><title>compare</title><path class="cls-1" d="M16 8.67H7.17a1.5 1.5 0 0 1 0-3H16a1.5 1.5 0 0 1 0 3zm21.53 0h-8.84a1.5 1.5 0 0 1 0-3h8.84a1.5 1.5 0 0 1 0 3zM7.17 33.23A7.08 7.08 0 0 1 1 29.65a7.06 7.06 0 0 1 0-7.16l6.2-10.75 6.21 10.75a7.16 7.16 0 0 1-6.24 10.74zm0-15.49L3.57 24a4.16 4.16 0 0 0 3.6 6.24A4.16 4.16 0 0 0 10.78 24z"/><path d="M37.31 33.23a7.16 7.16 0 0 1-6.21-10.74l6.21-10.75 6.21 10.75a7.16 7.16 0 0 1-6.21 10.74zm0-15.49L33.7 24a4.17 4.17 0 1 0 7.22 0z" fill="#ff8500"/><path class="cls-1" d="M22.39 26.07a1.5 1.5 0 0 1-1.5-1.5v-9.83a1.5 1.5 0 0 1 3 0v9.83a1.5 1.5 0 0 1-1.5 1.5z"/><circle cx="22.35" cy="7.84" r="6.34" fill="#fff"/><path class="cls-1" d="M22.35 15.68a7.84 7.84 0 1 1 7.84-7.84 7.85 7.85 0 0 1-7.84 7.84zm0-12.68a4.84 4.84 0 1 0 4.84 4.84A4.84 4.84 0 0 0 22.35 3z"/><circle class="cls-1" cx="22.35" cy="7.84" r="2.44"/></symbol><symbol id="sprite-cross" viewBox="0 0 31.112 31.112"><title>cross</title><path d="M31.112 1.414L29.698 0 15.556 14.142 1.414 0 0 1.414l14.142 14.142L0 29.698l1.414 1.414L15.556 16.97l14.142 14.142 1.414-1.414L16.97 15.556z"/></symbol><symbol id="sprite-down-arrow" viewBox="0 0 129 129"><title>down-arrow</title><path d="M121.3 34.6c-1.6-1.6-4.2-1.6-5.8 0l-51 51.1-51.1-51.1c-1.6-1.6-4.2-1.6-5.8 0-1.6 1.6-1.6 4.2 0 5.8l53.9 53.9c.8.8 1.8 1.2 2.9 1.2 1 0 2.1-.4 2.9-1.2l53.9-53.9c1.7-1.6 1.7-4.2.1-5.8z"/></symbol><symbol id="sprite-facebook-footer" viewBox="0 0 430.113 430.114"><title>facebook-footer</title><path d="M158.081 83.3v59.218h-43.385v72.412h43.385v215.183h89.122V214.936h59.805s5.601-34.721 8.316-72.685H247.54V92.74c0-7.4 9.717-17.354 19.321-17.354h48.557V.001h-66.021C155.878-.004 158.081 72.48 158.081 83.3z"/></symbol><symbol id="sprite-facebook" viewBox="0 0 430.113 430.114"><title>facebook</title><path fill="#fff" d="M158.081 83.3v59.218h-43.385v72.412h43.385v215.183h89.122V214.936h59.805s5.601-34.721 8.316-72.685H247.54V92.74c0-7.4 9.717-17.354 19.321-17.354h48.557V.001h-66.021C155.878-.004 158.081 72.48 158.081 83.3z"/></symbol><symbol id="sprite-favourite" viewBox="0 0 30.4 29.1"><title>favourite</title><path d="M21.3 8.6l5.9 1.8c1.2.4 1.7 1.9.9 2.9l-3.8 4.8c-.3.3-.4.8-.4 1.2l.1 6.2c0 1.3-1.3 2.2-2.5 1.8l-5.8-2.1c-.4-.1-.8-.2-1.2 0l-5.8 2c-1.2.4-2.5-.5-2.5-1.8l.3-6.2c0-.4-.1-.8-.4-1.2l-3.8-5c-.8-1-.3-2.5 1-2.9l5.9-1.7c.4-.1.8-.4 1-.7l3.6-5c.8-1.1 2.3-1 3.1 0l3.4 5.1c.2.4.6.7 1 .8z" fill="none" stroke="#b4b9bf" stroke-width="3" stroke-linecap="round" stroke-linejoin="round" stroke-miterlimit="10"/><circle cx="15.3" cy="15.5" r="3.5" fill="none" stroke="#ff8500" stroke-width="3" stroke-miterlimit="10"/></symbol><symbol id="sprite-filter-" viewBox="0 0 1000 1000"><title>filter-</title><path d="M1208.6 5003.2c-55.6-23-128.4-88.2-159.1-141.8-17.3-28.7-24.9-515.5-32.6-1797.7l-9.6-1761.3-97.7-40.2C511 1091.6 181.3 696.8 116.1 307.7 52.9-69.8 175.6-422.4 480.3-727.2c128.4-130.3 197.4-182.1 323.9-243.4 88.2-44.1 170.6-80.5 185.9-80.5 21.1 0 26.8-287.5 30.7-1770.9 5.7-1755.5 5.7-1772.8 46-1824.5 74.7-101.6 136.1-132.2 256.8-132.2 120.7 0 182.1 30.7 256.8 132.2 40.2 51.7 40.2 69 46 1824.5 3.8 1483.4 9.6 1770.9 30.7 1770.9 15.3 0 97.7 36.4 185.9 80.5 126.5 63.2 195.5 115 323.9 243.4 170.6 170.6 264.5 322 337.3 538.5 44.1 130.3 49.8 444.6 9.6 584.6-101.6 364.1-412.1 711-776.2 866.3l-97.7 40.2-9.6 1763.2c-9.6 1744-9.6 1765.1-49.8 1816.9-21.1 28.8-61.3 70.9-88.2 90.1-59.5 44-212.8 61.3-283.7 30.6zm392.9-4327.5c124.6-55.6 226.1-155.2 281.7-277.9 63.2-139.9 63.2-419.7 0-559.6-55.6-122.7-157.2-222.3-279.8-277.9-136.1-59.4-421.6-59.4-559.6 0C923-387.9 821.4-286.4 763.9-159.9c-63.2 138-63.2 417.8 0 555.8 105.4 230 302.8 341.1 588.4 329.6 107.3-5.7 182.1-19.1 249.2-49.8zm3196.7 4329.4C4301.8 4899.7 3861 4439.8 3792 3956.8c-53.7-369.9 70.9-709.1 366.1-1004.3 128.4-128.4 199.3-182.1 325.8-243.4 88.2-44.1 172.5-80.5 185.9-80.5 23 0 26.8-559.6 30.7-3610.7l5.7-3612.7 40.2-51.7c74.7-101.6 136.1-132.2 256.8-132.2 120.7 0 182.1 30.7 256.8 132.2l40.3 51.7 5.7 3612.7c3.8 3051.1 7.7 3610.7 30.7 3610.7 13.4 0 97.8 36.4 185.9 80.5 208.9 103.5 454.2 343.1 557.7 542.4 115 224.2 139.9 322 139.9 546.2 0 333.5-109.2 580.7-373.7 843.3-168.7 168.7-302.8 254.9-511.7 327.7-126.5 44.1-410.1 63.3-536.6 36.4zm483-649.7c124.6-55.6 226.2-155.2 281.7-277.9 61.3-139.9 61.3-419.7 0-559.6-55.6-120.7-157.2-222.3-281.7-279.8-139.9-63.2-417.8-63.2-557.7 0-120.7 55.6-222.3 157.2-279.8 281.7-63.2 138-63.2 417.8 0 555.8 105.4 230 302.8 341.1 588.4 329.6 107.3-5.7 182-19.1 249.1-49.8zm3277.2 642.1c-70.9-32.6-134.2-99.7-161-170.6-15.3-38.3-21.1-1146.1-21.1-3637.6 0-3037.7-3.8-3582-26.8-3582-13.4 0-97.7-36.4-185.9-80.5-210.8-103.5-454.2-343.1-557.7-542.4-115-224.2-139.9-322-139.9-546.2 0-333.5 109.2-580.7 373.7-843.3 262.6-264.5 509.8-373.7 843.3-373.7 333.5 0 580.7 109.3 843.3 373.7 264.5 262.6 373.7 509.8 373.7 843.3 0 224.3-24.9 322-139.9 546.2-103.5 199.3-346.9 438.9-557.7 542.4-88.2 44.1-172.5 80.5-185.9 80.5-23 0-26.8 559.6-30.7 3610.7l-5.7 3612.6-40.2 51.7c-21.1 28.8-61.3 70.9-88.2 90.1-65.2 48.1-216.6 61.5-293.3 25.1zM8960.9-3004c124.6-55.6 226.1-155.2 281.7-277.9 36.4-80.5 44.1-130.3 44.1-279.8s-7.7-199.3-44.1-279.8c-55.6-120.8-157.2-222.3-281.7-279.8-138-63.3-417.8-63.3-557.7 0-120.8 55.6-222.3 157.1-279.8 281.7-63.2 138-63.2 417.8 0 555.8 105.4 230 302.8 341.2 588.4 329.7 107.3-5.8 182-19.2 249.1-49.9z" transform="matrix(.1 0 0 -.1 0 512)"/></symbol><symbol id="sprite-filter" viewBox="0 0 971.986 971.986"><title>filter</title><path d="M370.216 459.3c10.2 11.1 15.8 25.6 15.8 40.6v442c0 26.601 32.1 40.101 51.1 21.4l123.3-141.3c16.5-19.8 25.6-29.601 25.6-49.2V500c0-15 5.7-29.5 15.8-40.601L955.615 75.5c26.5-28.8 6.101-75.5-33.1-75.5h-873c-39.2 0-59.7 46.6-33.1 75.5l353.801 383.8z"/></symbol><symbol id="sprite-google" viewBox="0 0 512 512"><title>google</title><path d="M113.47 309.408L95.648 375.94l-65.139 1.378C11.042 341.211 0 299.9 0 256c0-42.451 10.324-82.483 28.624-117.732h.014L86.63 148.9l25.404 57.644c-5.317 15.501-8.215 32.141-8.215 49.456.002 18.792 3.406 36.797 9.651 53.408zm394.057-101.232C510.467 223.662 512 239.655 512 256c0 18.328-1.927 36.206-5.598 53.451-12.462 58.683-45.025 109.925-90.134 146.187l-.014-.014-73.044-3.727-10.338-64.535c29.932-17.554 53.324-45.025 65.646-77.911h-136.89V208.176h245.899z" fill="#fff"/><path d="M416.253 455.624l.014.014C372.396 490.901 316.666 512 256 512c-97.491 0-182.252-54.491-225.491-134.681l82.961-67.91c21.619 57.698 77.278 98.771 142.53 98.771 28.047 0 54.323-7.582 76.87-20.818l83.383 68.262zm3.151-396.688l-82.933 67.896C313.136 112.246 285.552 103.82 256 103.82c-66.729 0-123.429 42.957-143.965 102.724l-83.397-68.276h-.014C71.23 56.123 157.06 0 256 0c62.115 0 119.068 22.126 163.404 58.936z" fill="#fff"/></symbol><symbol id="sprite-guarantee" viewBox="0 0 28.25 39.03"><defs><style>.cls-1{fill:#b4b9bf}</style></defs><title>guarantee</title><path class="cls-1" d="M14.13 39a1.43 1.43 0 0 1-.64-.15l-6.82-3.21A11.74 11.74 0 0 1 0 25.09V1.5A1.5 1.5 0 0 1 1.5 0h25.25a1.5 1.5 0 0 1 1.5 1.5v23.59a11.74 11.74 0 0 1-6.67 10.55l-6.81 3.24a1.43 1.43 0 0 1-.64.12zM3 3v22.09a8.76 8.76 0 0 0 5 7.85l6.18 2.93 6.17-2.93a8.74 8.74 0 0 0 4.95-7.85V3zm17.94 31.29z"/><path class="cls-1" d="M12.28 25.49a1.74 1.74 0 0 1-.39 0 1.49 1.49 0 0 1-.94-.76l-.56-1.09-1.23.06A1.52 1.52 0 0 1 8 23.21a1.5 1.5 0 0 1-.44-1.13l.06-1.23-1.09-.56A1.49 1.49 0 0 1 6 18.15l.66-1-.66-1A1.49 1.49 0 0 1 6.56 14l1.09-.57-.06-1.22a1.51 1.51 0 0 1 1.57-1.57l1.23.06.61-1.14a1.48 1.48 0 0 1 .94-.77 1.5 1.5 0 0 1 1.2.19l1 .66 1-.66a1.5 1.5 0 0 1 1.2-.19 1.48 1.48 0 0 1 .94.77l.56 1.09 1.23-.06a1.54 1.54 0 0 1 1.13.44 1.5 1.5 0 0 1 .44 1.13l-.06 1.22 1.09.57a1.49 1.49 0 0 1 .57 2.14l-.66 1 .66 1a1.49 1.49 0 0 1-.57 2.14l-1.09.56.06 1.23a1.51 1.51 0 0 1-1.57 1.57l-1.23-.06-.56 1.09a1.49 1.49 0 0 1-2.14.57l-1-.66-1 .66a1.5 1.5 0 0 1-.86.3zm-1-4.94a1.5 1.5 0 0 1 1.33.81l.25.48.46-.3a1.51 1.51 0 0 1 1.62 0l.45.29.25-.48a1.51 1.51 0 0 1 1.4-.81h.55v-.55a1.49 1.49 0 0 1 .81-1.4l.48-.25-.29-.45a1.49 1.49 0 0 1 0-1.62l.29-.46-.48-.25a1.5 1.5 0 0 1-.81-1.4v-.54h-.55a1.51 1.51 0 0 1-1.41-.82l-.24-.48-.45.29a1.49 1.49 0 0 1-1.62 0l-.46-.29-.25.48a1.46 1.46 0 0 1-1.4.82h-.55v.54a1.5 1.5 0 0 1-.81 1.4l-.48.25.29.46a1.49 1.49 0 0 1 0 1.62l-.29.45.48.25a1.49 1.49 0 0 1 .81 1.4v.55h.55z"/></symbol><symbol id="sprite-item-special" viewBox="0 0 74 26"><title>item-special</title><path fill-rule="evenodd" clip-rule="evenodd" d="M0 0h74v9a4 4 0 0 0 0 8v9H0v-9a4 4 0 0 0 0-8V0z"/></symbol><symbol id="sprite-link1" viewBox="0 0 40.6 17.7"><title>link1</title><style>.st0{stroke-width:2}.st0,.st1,.st2{fill:none;stroke:#5a5959;stroke-miterlimit:10}.st2{stroke-width:2;stroke-linecap:round}</style><path class="st0" d="M29.6 13.3H12.9m-6.6 0s-4.9-.1-4.9-2.8v-4c0-.8.6-1.4 1.4-1.4h2s6.3-3.7 13-3.5c4.1.4 4.6.8 8.7 3.3 1.5.9 5.4 1.8 7.8 2.1 3 .3 5.2 2.6 4.7 5.6 0 .1-.1.6-.1.7h-3.2"/><path class="st0" d="M3.2 10.1h-1V7.4h1.7c.5 0 1 .4 1 1 0 1-.8 1.7-1.7 1.7z"/><circle class="st0" cx="9.5" cy="13.3" r="3"/><circle class="st1" cx="9.5" cy="13.2" r=".8"/><circle class="st0" cx="32.3" cy="13.3" r="3"/><circle class="st1" cx="32.3" cy="13.2" r=".8"/><path class="st2" d="M7.5 3.8s1.3 3.1 3.4 3.1h22.2M10.3 9.8l1.4-7.5"/><path class="st2" d="M19.8 12.9V6.5l-1.6-4.6"/><path class="st0" d="M38.1 9.5c-.1.5-.6.8-1.1.7-.5-.1-.8-.6-.7-1.1s.6-.8 1.1-.7"/></symbol><symbol id="sprite-link2" viewBox="0 0 48.5 32.8"><title>link2</title><style>.st0,.st1{fill:none;stroke:#5a5959;stroke-width:2;stroke-miterlimit:10}.st1{stroke-linecap:round}</style><circle class="st0" cx="8.1" cy="27.4" r="3.5"/><circle class="st0" cx="8.1" cy="27.3" r="1.1"/><circle class="st0" cx="15.5" cy="27.4" r="3.5"/><circle class="st0" cx="15.5" cy="27.3" r="1.1"/><circle class="st0" cx="38.6" cy="27.4" r="3.5"/><circle class="st0" cx="38.6" cy="27.3" r="1.1"/><path class="st0" d="M35.1 27.1H19.2m5.4-12.4h3.7v8.6h-3.7z"/><path class="st1" d="M28.2 1.8v21.4M23.1 7.1l3.3 3.4v4.1m-15.8 8.6l5.6-3.1"/><path class="st1" d="M2.4 23.2h29.8l1.9-.9c2.9-1.4 6.3-1 8.9.9l1.7 1.2c.3.6 1.1.7 1.6.3v-3.2c0-.8-.7-1.5-1.5-1.5v-2.5l.2-.1c.8-.5 1.3-1.4 1.3-2.3V6.8c0-1.7-1.4-3.1-3.1-3.1H31.4c-1.8 0-3.3 1.5-3.3 3.3v16.3"/><path class="st0" d="M46.2 12.1h-6l-1.6-1.2h-2.2V22m-.8-18.3v7.2M38 3.7v17.6m-7.9-5h-.3v-2.4h2.7c0 1.3-1.1 2.4-2.4 2.4zm-.6 1.9h2.8m-2.8 2h2.8"/><path class="st1" d="M46.2 14.3h-4.1m4.1 1.8h-2.5m-13.3-9h4.7m-5.3 2h5.3"/></symbol><symbol id="sprite-link3" viewBox="0 0 26.1 26"><title>link3</title><style>.st0{stroke-width:2}.st0,.st2{fill:none;stroke:#5a5959;stroke-miterlimit:10}</style><circle class="st0" cx="13" cy="13" r="11.1"/><circle class="st0" cx="13" cy="13" r="8.3"/><circle class="st0" cx="13" cy="13" r="3.2"/><circle cx="13" cy="13" r=".6" fill="#5a5959"/><path class="st2" d="M9.8 13.6l-6.9 2.8m13.4-2.8l7 2.8m-10.4 7.7l.1-8M6.3 4l4.8 6.5M19.4 4l-4.8 6.5"/></symbol><symbol id="sprite-link4" viewBox="0 0 24.5 32.3"><title>link4</title><style>.st0{stroke-width:2}.st0,.st1{fill:none;stroke:#5a5959;stroke-miterlimit:10}</style><path class="st0" d="M6.8 27.1v2.8h15.3V13l-7.5-5.5-7.8.1v6m7.1-6.3H6.8V3.4l7.1-.1z"/><path class="st1" d="M9.3 3.3v3.5m1.9-3.5v3.5"/><path class="st0" d="M6.9 12.5l-4 6.5c-2 3.2.3 7.3 4.1 7.3s6.1-4.1 4.1-7.3l-4.2-6.5z"/><path class="st1" d="M9.7 16.8h12.4m0 5.6H11.7"/></symbol><symbol id="sprite-link5" viewBox="0 0 26.3 24.8"><title>link5</title><style>.st0{stroke-width:2}.st0,.st1{fill:none;stroke:#5a5959;stroke-miterlimit:10}</style><path class="st0" d="M1.6 5.3h23.3v17.3H1.6zm2-3.9H9V5H3.6zm14 0H23V5h-5.4z"/><path class="st1" d="M1.6 9.1h23.3M5.1 14.9h4.2m7.8 0h4.2M7.2 12.8V17"/></symbol><symbol id="sprite-login" viewBox="0 0 16.8 15.9"><title>login</title><path d="M8.4 2.1c1.4 0 2.5 1.1 2.5 2.5v2.3L10.8 8l1.1.4c1.8.7 3.1 2.5 3.1 4.4v1.3H2v-1.3c0-2 1.2-3.7 3.1-4.4l1-.4L6 6.8V4.5c-.1-1.3 1-2.4 2.4-2.4m0-1.5c-2.2 0-4 1.8-4 4V7c-2.4.9-4 3.2-4 5.8v2.8h16v-2.8c0-2.7-1.7-4.9-4-5.8V4.6c0-2.2-1.8-4-4-4z" fill="#fff"/></symbol><symbol id="sprite-minus" viewBox="0 0 22.354 22.354"><title>minus</title><path d="M0 8.61h22.354v5.133H0z"/></symbol><symbol id="sprite-new" viewBox="0 0 47.5 24.62"><defs><style>.cls-1{fill:#b4b9bf}</style></defs><title>new</title><path class="cls-1" d="M46 24.62H7.5a1.51 1.51 0 0 1-1.31-.77L.19 13a1.51 1.51 0 0 1 0-1.46l6-10.77A1.51 1.51 0 0 1 7.5 0H46a1.5 1.5 0 0 1 1.5 1.5v21.62a1.5 1.5 0 0 1-1.5 1.5zm-37.62-3H44.5V3H8.38l-5.16 9.31z"/><path d="M11.89 17.17a4.8 4.8 0 1 1 4.8-4.8 4.8 4.8 0 0 1-4.8 4.8zm0-6.6a1.8 1.8 0 1 0 1.8 1.8 1.81 1.81 0 0 0-1.8-1.8z" fill="#ff8500"/><path class="cls-1" d="M23.33 15.17l-2.46-3.38v3.38h-2V8.5H21l2.32 3.16V8.5h2v6.67zm3.02 0V8.5h5.06v1.76h-3v.66h3v1.76h-3v.73h3v1.76zm11.05 0l-.86-3.78-.86 3.78h-2.12L31.65 8.5h2.26l.86 4.08 1-4.08h1.53l1 4.08.85-4.08h2.27l-1.91 6.67z"/></symbol><symbol id="sprite-passenger-car" viewBox="0 0 52.69 25.38"><defs><style>.cls-1{fill:#b4b9bf}</style></defs><title>passenger-car</title><path class="cls-1" d="M35.22 21H17.4a1.5 1.5 0 1 1 0-3h17.82a1.5 1.5 0 0 1 0 3z" transform="translate(0 .03)"/><path class="cls-1" d="M7.34 21h-1C.62 20.71 0 17.69 0 16.41c0-4 4.55-7.7 7.68-8.46.41-.1.9-.19 1.45-.29a22.23 22.23 0 0 0 10.41-4.28A15.83 15.83 0 0 1 27.8.15c.93-.1 2-.16 3.05-.18A16.18 16.18 0 0 1 40 2.64l3.2 2.11a9.25 9.25 0 0 0 4.14 1.44l1.66.15a4.05 4.05 0 0 1 3.69 4.05v6c0 .23-.2 4.61-7.69 4.61a1.5 1.5 0 0 1 0-3c4.3 0 4.69-1.63 4.69-1.65v-6a1.07 1.07 0 0 0-1-1.07l-1.65-.15a12.25 12.25 0 0 1-5.51-1.91l-3.2-2.12A13.11 13.11 0 0 0 30.9 3c-1 0-1.95.08-2.81.16a13 13 0 0 0-6.72 2.62 25.12 25.12 0 0 1-11.7 4.86c-.49.09-.93.17-1.3.26C6.26 11.38 3 14.07 3 16.41 3 17.69 5.44 18 6.49 18a11.49 11.49 0 0 0 1.66 0 1.5 1.5 0 0 1 .22 3H7.34z" transform="translate(0 .03)"/><path class="cls-1" d="M13 25.35a5.81 5.81 0 1 1 5.81-5.81A5.82 5.82 0 0 1 13 25.35zm0-8.62a2.81 2.81 0 1 0 2.81 2.81A2.81 2.81 0 0 0 13 16.73zm27 8.62a5.81 5.81 0 1 1 5.81-5.81A5.82 5.82 0 0 1 40 25.35zm0-8.62a2.81 2.81 0 1 0 2.81 2.81A2.81 2.81 0 0 0 40 16.73zm-9.78-6.86H13a1.5 1.5 0 0 1 0-3h17.22a1.5 1.5 0 1 1 0 3z" transform="translate(0 .03)"/></symbol><symbol id="sprite-payment" viewBox="0 0 40.5 35.33"><defs><style>.cls-1{fill:#b4b9bf}</style></defs><title>payment</title><path class="cls-1" d="M32.33 35.33H8.17A8.18 8.18 0 0 1 0 27.16v-14A8.19 8.19 0 0 1 8.17 5h24.16a8.19 8.19 0 0 1 8.17 8.17v14a8.18 8.18 0 0 1-8.17 8.16zM8.17 8A5.18 5.18 0 0 0 3 13.17v14a5.18 5.18 0 0 0 5.17 5.17h24.16a5.18 5.18 0 0 0 5.17-5.17v-14A5.18 5.18 0 0 0 32.33 8z"/><path class="cls-1" d="M1.5 21.83a1.5 1.5 0 0 1-1.5-1.5V8.17A8.21 8.21 0 0 1 8.17 0h25.16a1.5 1.5 0 0 1 0 3H8.17A5.2 5.2 0 0 0 3 8.17v12.16a1.5 1.5 0 0 1-1.5 1.5z"/><circle class="cls-1" cx="30.9" cy="19.53" r="1.53"/><path class="cls-1" d="M39 24.81H24.06a1.5 1.5 0 0 1-1.5-1.5v-7.63a1.5 1.5 0 0 1 1.5-1.5H39a1.5 1.5 0 0 1 1.5 1.5v7.63a1.5 1.5 0 0 1-1.5 1.5zm-13.44-3H37.5v-4.63H25.56z"/></symbol><symbol id="sprite-phone" viewBox="0 0 578.11 577.73"><title>phone</title><path d="M577.83 455.94q1.83 14.07-8.57 24.48l-81.39 80.78a45.91 45.91 0 0 1-14.38 10.4 59.24 59.24 0 0 1-17.44 5.51c-.41 0-1.64.11-3.68.31s-4.69.31-7.95.31q-11.64 0-37.64-4t-63.65-19.59q-37.63-15.6-85.37-46.81t-101.6-85.68q-42.84-42.24-71-80.79t-45.29-71.3q-17.12-32.75-25.69-59.34t-11.63-45.9Q-.51 145.05.1 134.03t.61-12.22a59.8 59.8 0 0 1 5.51-17.45 46 46 0 0 1 10.41-14.4L98 8.57Q106.59-.01 117.61 0a22.82 22.82 0 0 1 14.07 4.59 42.59 42.59 0 0 1 10.41 11.32l65.48 124.24a29.79 29.79 0 0 1 3.06 21.42 38.13 38.13 0 0 1-10.4 19.58l-30 30a10.07 10.07 0 0 0-2.14 4 14.81 14.81 0 0 0-.92 4.59q2.44 12.84 11 29.37 7.35 14.68 22.65 35.8t43.45 48.66q27.54 28.15 49 43.76t35.8 22.95q14.38 7.33 22 8.87l7.65 1.53a14.59 14.59 0 0 0 4-.92 10.27 10.27 0 0 0 4-2.14l34.88-35.5a37.5 37.5 0 0 1 25.71-9.79q10.41 0 16.52 3.67h.61l118.12 69.77q12.83 7.94 15.27 20.17z" fill="#010002"/></symbol><symbol id="sprite-plus" viewBox="0 0 357 357"><title>plus</title><path d="M357 204H204v153h-51V204H0v-51h153V0h51v153h153v51z"/></symbol><symbol id="sprite-right-arrow" viewBox="0 0 492.004 492.004"><title>right-arrow</title><path d="M382.678 226.804L163.73 7.86C158.666 2.792 151.906 0 144.698 0s-13.968 2.792-19.032 7.86l-16.124 16.12c-10.492 10.504-10.492 27.576 0 38.064L293.398 245.9l-184.06 184.06c-5.064 5.068-7.86 11.824-7.86 19.028 0 7.212 2.796 13.968 7.86 19.04l16.124 16.116c5.068 5.068 11.824 7.86 19.032 7.86s13.968-2.792 19.032-7.86L382.678 265c5.076-5.084 7.864-11.872 7.848-19.088.016-7.244-2.772-14.028-7.848-19.108z"/></symbol><symbol id="sprite-search" viewBox="0 0 56.966 56.966"><title>search</title><path d="M55.146 51.887L41.588 37.786A22.926 22.926 0 0 0 46.984 23c0-12.682-10.318-23-23-23s-23 10.318-23 23 10.318 23 23 23c4.761 0 9.298-1.436 13.177-4.162l13.661 14.208c.571.593 1.339.92 2.162.92.779 0 1.518-.297 2.079-.837a3.004 3.004 0 0 0 .083-4.242zM23.984 6c9.374 0 17 7.626 17 17s-7.626 17-17 17-17-7.626-17-17 7.626-17 17-17z"/></symbol><symbol id="sprite-star" viewBox="0 0 55.867 55.867"><title>star</title><path d="M55.818 21.578a1.002 1.002 0 0 0-.808-.681l-18.09-2.629-8.09-16.392a.998.998 0 0 0-1.792 0l-8.091 16.393-18.09 2.629a1.002 1.002 0 0 0-.555 1.705l13.091 12.76-3.091 18.018c-.064.375.09.754.397.978a.992.992 0 0 0 1.053.076l16.182-8.506 16.18 8.506a1 1 0 0 0 1.451-1.054l-3.09-18.017 13.091-12.761c.272-.267.37-.664.252-1.025z"/></symbol><symbol id="sprite-sub" viewBox="0 0 512 512"><title>sub</title><path d="M76 512c41.352 0 75-34.648 75-76s-33.648-76-75-76-76 34.648-76 76 34.648 76 76 76zm0 0"/><path d="M242 497c0 5.063-.43 10.02-.762 15h90c.239-5.008.762-9.938.762-15 0-173.688-143.312-317-317-317-5.062 0-9.992.523-15 .762v90c4.98-.332 9.938-.762 15-.762 124.07 0 227 102.93 227 227zm0 0"/><path d="M15 0C9.934 0 5.027.61 0 .758v90.004C5.02 90.574 9.938 90 15 90c223.316 0 407 183.684 407 407 0 5.063-.574 9.98-.762 15h90.004c.149-5.027.758-9.934.758-15C512 223.617 288.379 0 15 0zm0 0"/></symbol><symbol id="sprite-summer" viewBox="0 0 37.29 37.29"><defs><style>.cls-1{fill:#ff8500}</style></defs><title>summer</title><path class="cls-1" d="M18.65 25.65a7 7 0 1 1 7-6.95 7 7 0 0 1-7 6.95zm0-10.9a3.95 3.95 0 1 0 4 3.95 4 4 0 0 0-4-3.95zm0-5.03a1.5 1.5 0 0 1-1.5-1.5V1.5a1.5 1.5 0 0 1 3 0v6.72a1.5 1.5 0 0 1-1.5 1.5zm0 27.57a1.5 1.5 0 0 1-1.5-1.5v-6.71a1.5 1.5 0 0 1 3 0v6.71a1.5 1.5 0 0 1-1.5 1.5zM26 12.77a1.51 1.51 0 0 1-1-.44 1.49 1.49 0 0 1 0-2.12l4.75-4.75a1.5 1.5 0 1 1 2.12 2.12l-4.75 4.75a1.51 1.51 0 0 1-1.12.44zM6.52 32.27a1.51 1.51 0 0 1-1.06-.44 1.49 1.49 0 0 1 0-2.12L10.21 25a1.5 1.5 0 0 1 2.12 2.12l-4.75 4.71a1.51 1.51 0 0 1-1.06.44zm29.27-12.12h-6.71a1.5 1.5 0 0 1 0-3h6.71a1.5 1.5 0 0 1 0 3zm-27.57 0H1.5a1.5 1.5 0 0 1 0-3h6.72a1.5 1.5 0 0 1 0 3zm22.55 12.12a1.51 1.51 0 0 1-1.06-.44L25 27.08A1.5 1.5 0 0 1 27.08 25l4.75 4.75a1.49 1.49 0 0 1 0 2.12 1.51 1.51 0 0 1-1.06.4zm-19.5-19.5a1.51 1.51 0 0 1-1.06-.44L5.46 7.58a1.5 1.5 0 1 1 2.12-2.12l4.75 4.75a1.49 1.49 0 0 1 0 2.12 1.51 1.51 0 0 1-1.06.44z"/></symbol><symbol id="sprite-twitter-1" viewBox="0 -47 512.002 512"><title>twitter-1</title><path d="M191.012 419.043c-22.14 0-44.93-1.793-67.856-5.387-40.379-6.336-81.254-27.457-92.82-33.781L0 363.289l32.844-10.8c35.902-11.805 57.742-19.13 84.777-30.598-27.07-13.11-47.933-36.692-57.976-67.176l-7.641-23.195 6.266.957A113.939 113.939 0 0 1 44 214.883c-12.934-19.645-19.781-43.649-18.324-64.219l1.437-20.246 12.121 4.695a113.316 113.316 0 0 1-10.98-30.777c-5.293-26.36-.863-54.363 12.476-78.852L51.29 6.102l14.12 16.96c44.66 53.649 101.227 85.473 168.363 94.79-2.742-18.903-.687-37.145 6.114-53.497 7.918-19.039 22.004-35.183 40.722-46.69 20.79-12.778 46-18.97 70.989-17.435 26.511 1.63 50.582 11.563 69.699 28.747 9.336-2.426 16.215-5.016 25.512-8.516 5.593-2.106 11.937-4.496 19.875-7.23l29.25-10.079-19.075 54.477a96.355 96.355 0 0 1 3.91-.254l31.235-1.414-18.461 25.23c-1.059 1.446-1.328 1.856-1.703 2.422-1.488 2.242-3.34 5.032-28.68 38.867-6.344 8.473-9.512 19.508-8.922 31.079 2.246 43.968-3.148 83.75-16.043 118.234-12.195 32.625-31.093 60.617-56.164 83.2-31.023 27.937-70.582 47.066-117.582 56.847-23.054 4.797-47.812 7.203-73.437 7.203zm0 0"/></symbol><symbol id="sprite-twitter-footer" viewBox="0 0 612 612"><title>twitter-footer</title><path d="M612 116.258a250.714 250.714 0 0 1-72.088 19.772c25.929-15.527 45.777-40.155 55.184-69.411-24.322 14.379-51.169 24.82-79.775 30.48-22.907-24.437-55.49-39.658-91.63-39.658-69.334 0-125.551 56.217-125.551 125.513 0 9.828 1.109 19.427 3.251 28.606-104.326-5.24-196.835-55.223-258.75-131.174-10.823 18.51-16.98 40.078-16.98 63.101 0 43.559 22.181 81.993 55.835 104.479a125.556 125.556 0 0 1-56.867-15.756v1.568c0 60.806 43.291 111.554 100.693 123.104-10.517 2.83-21.607 4.398-33.08 4.398-8.107 0-15.947-.803-23.634-2.333 15.985 49.907 62.336 86.199 117.253 87.194-42.947 33.654-97.099 53.655-155.916 53.655-10.134 0-20.116-.612-29.944-1.721 55.567 35.681 121.536 56.485 192.438 56.485 230.948 0 357.188-191.291 357.188-357.188l-.421-16.253c24.666-17.593 46.005-39.697 62.794-64.861z" fill="#010002"/></symbol><symbol id="sprite-twitter-footer1" viewBox="0 0 512 512"><title>twitter-footer1</title><path d="M512 97.248c-19.04 8.352-39.328 13.888-60.48 16.576 21.76-12.992 38.368-33.408 46.176-58.016-20.288 12.096-42.688 20.64-66.56 25.408C411.872 60.704 384.416 48 354.464 48c-58.112 0-104.896 47.168-104.896 104.992 0 8.32.704 16.32 2.432 23.936-87.264-4.256-164.48-46.08-216.352-109.792-9.056 15.712-14.368 33.696-14.368 53.056 0 36.352 18.72 68.576 46.624 87.232-16.864-.32-33.408-5.216-47.424-12.928v1.152c0 51.008 36.384 93.376 84.096 103.136-8.544 2.336-17.856 3.456-27.52 3.456-6.72 0-13.504-.384-19.872-1.792 13.6 41.568 52.192 72.128 98.08 73.12-35.712 27.936-81.056 44.768-130.144 44.768-8.608 0-16.864-.384-25.12-1.44C46.496 446.88 101.6 464 161.024 464c193.152 0 298.752-160 298.752-298.688 0-4.64-.16-9.12-.384-13.568 20.832-14.784 38.336-33.248 52.608-54.496z" fill="#03a9f4"/></symbol><symbol id="sprite-twitter" viewBox="0 0 612 612"><title>twitter</title><path d="M612 116.258a250.714 250.714 0 0 1-72.088 19.772c25.929-15.527 45.777-40.155 55.184-69.411-24.322 14.379-51.169 24.82-79.775 30.48-22.907-24.437-55.49-39.658-91.63-39.658-69.334 0-125.551 56.217-125.551 125.513 0 9.828 1.109 19.427 3.251 28.606-104.326-5.24-196.835-55.223-258.75-131.174-10.823 18.51-16.98 40.078-16.98 63.101 0 43.559 22.181 81.993 55.835 104.479a125.556 125.556 0 0 1-56.867-15.756v1.568c0 60.806 43.291 111.554 100.693 123.104-10.517 2.83-21.607 4.398-33.08 4.398-8.107 0-15.947-.803-23.634-2.333 15.985 49.907 62.336 86.199 117.253 87.194-42.947 33.654-97.099 53.655-155.916 53.655-10.134 0-20.116-.612-29.944-1.721 55.567 35.681 121.536 56.485 192.438 56.485 230.948 0 357.188-191.291 357.188-357.188l-.421-16.253c24.666-17.593 46.005-39.697 62.794-64.861z" fill="#fff"/></symbol><symbol id="sprite-ukraine" viewBox="0 0 52.1 36.11"><title>ukraine</title><path d="M34.27 36.11a2.06 2.06 0 0 1-1.76-.69 1.51 1.51 0 0 1-1-1.51 3.38 3.38 0 0 1 .24-1.09 2.71 2.71 0 0 1-1.1-.74 2.12 2.12 0 0 1-1.41-.89 1.65 1.65 0 0 1-.24-1.28 1.69 1.69 0 0 1 .6-1l.08-.09a2.45 2.45 0 0 1-1.47-.44 2.25 2.25 0 0 1-1.61-1.19.94.94 0 0 1-.12-.22l-.18.11a1.47 1.47 0 0 1-.29.4 4 4 0 0 0-.46.59 7.31 7.31 0 0 1-.54.73 2.88 2.88 0 0 0-.28.38 2.3 2.3 0 0 1-1 1v.48a1.64 1.64 0 0 1-1.13 1.66 1.62 1.62 0 0 1-1.34-.18l-.28.24a2.19 2.19 0 0 1-1.61.58 1.84 1.84 0 0 1-1.26-.75 1.79 1.79 0 0 1-1.19-2.41 2 2 0 0 1 .76-1.3l.05-.07.06-.09a1.46 1.46 0 0 1 .16-.19 2.38 2.38 0 0 1 .3-.32 1.08 1.08 0 0 0 .13-.15c-.08-1-.08-1.1-.08-1.16v-1.17A1.49 1.49 0 0 1 20.42 24l.44.22V24c0-.07-.17-.26-.26-.42a1.89 1.89 0 0 1-1.1-.91 2.05 2.05 0 0 1-.05-2 2.72 2.72 0 0 0-.78-.34 1.17 1.17 0 0 1-.2-.06 7.6 7.6 0 0 1-1-.55 1.44 1.44 0 0 0-.3-.17l-.17-.03a.62.62 0 0 0-.38 0 1.1 1.1 0 0 1-.26.06 7.89 7.89 0 0 1-2.06 0 2.15 2.15 0 0 1-.35.21 2.81 2.81 0 0 1-.43.33 3.46 3.46 0 0 1-1.21.81 2 2 0 0 1-1.57 0 2 2 0 0 1-2 .33l-.33-.09a2.65 2.65 0 0 1-.79-.32 3.85 3.85 0 0 1-.64-.15 2.19 2.19 0 0 1-1 0 2.54 2.54 0 0 1-1.29-.59l-.1-.07a2.7 2.7 0 0 1-.91 0h-.09a2.26 2.26 0 0 1-.73 0 2 2 0 0 1-1.66-1L1.13 19a1.83 1.83 0 0 0-.2-.21A2.53 2.53 0 0 1 0 17a1.73 1.73 0 0 1 0-.32 5.35 5.35 0 0 1 .76-1.79l.06-.09a2.74 2.74 0 0 0 .36-.59A2.43 2.43 0 0 1 2.1 13a2.76 2.76 0 0 1 .06-.73 3.21 3.21 0 0 1 .69-1.31l.15-.27a3.2 3.2 0 0 1 1.24-1 5.26 5.26 0 0 0 .52-.33l.12-.08a6.65 6.65 0 0 0 .88-.62.77.77 0 0 1 0-.15 3.62 3.62 0 0 1 .08-1.12.44.44 0 0 0 0-.1A2.49 2.49 0 0 1 6 5.55a3.26 3.26 0 0 1 .38-2.85A2.06 2.06 0 0 1 8 1.78c.25-.1.48-.17.72-.24a5.64 5.64 0 0 0 .66-.22 1.86 1.86 0 0 1 1.69 0 16 16 0 0 1 1.69.4l.49.13a8.74 8.74 0 0 1 1.36.42 4.06 4.06 0 0 0 1.14.32 4.75 4.75 0 0 1 1.12.3l.16.06h.16a9.09 9.09 0 0 1 1.83.59 1.9 1.9 0 0 1 .84 0 7.9 7.9 0 0 1 1.14.27 13.2 13.2 0 0 1 1.73.42h.13c.16 0 .36-.06.58-.07a2.88 2.88 0 0 1 .11-.49 2.19 2.19 0 0 1 .63-.9 2 2 0 0 1 1-.95 2.07 2.07 0 0 1 1.65-.41 3.87 3.87 0 0 0 .74 0 3.32 3.32 0 0 1 .5-.32 2.27 2.27 0 0 1 1.46-.35A2.93 2.93 0 0 0 30 .61 1.77 1.77 0 0 1 31.41 0a2 2 0 0 1 1.46.72H33a1.51 1.51 0 0 1 1.08.46l1.33 1.38a1.48 1.48 0 0 1 .41 1.23 1.52 1.52 0 0 1-.45.89v.13a2.59 2.59 0 0 1 1 .22c.08 0 .2.08.43.15a1.86 1.86 0 0 1 1.58 1.87 3.79 3.79 0 0 1 .34.84h.37a9.44 9.44 0 0 0 1.19.15 1.88 1.88 0 0 1 1.06-.42l.24-.07c.49-.17 1.78-.61 2.44.53l.62.54.13.12L45 9h.47c.3 0 .68.07 1.06.07h.37a1.49 1.49 0 0 1 .77.21l1.33.82h.13c.21 0 .52.14 1.07.31s1.72.59 1.88 1.59a1.57 1.57 0 0 1-.47 1.39 3.29 3.29 0 0 1-.29.52 1.5 1.5 0 0 1 0 1.14 1.77 1.77 0 0 0-.06.17 1.55 1.55 0 0 0 .06.31 10.11 10.11 0 0 1 .39 1.4 1.39 1.39 0 0 1 0 .41 6.86 6.86 0 0 0 0 1.11v.11a1.73 1.73 0 0 1-.54 1.31 1.88 1.88 0 0 1-1.5.45h-.19a4.83 4.83 0 0 0-1 .14 1.65 1.65 0 0 1-.61.72l-.09.06a3.54 3.54 0 0 0-.47.49 2.23 2.23 0 0 1 .1.85 1.69 1.69 0 0 1-1.17 1.7 1.59 1.59 0 0 1-1.09-.15 1.5 1.5 0 0 0-.32.19 2.3 2.3 0 0 1-1 .48l-.19.08a6.09 6.09 0 0 1-.91.32l-.82.54-.16.11a5.36 5.36 0 0 1-1 .5 5.71 5.71 0 0 0-.67.3 4.2 4.2 0 0 0-.37.21l-.27.17a2.12 2.12 0 0 1-1 1.19 2.3 2.3 0 0 1 .47.54h.26a3 3 0 0 0 .54 0l.47-.07a2.84 2.84 0 0 1 1-.2 2 2 0 0 1 1.59.82 1.48 1.48 0 0 1 .23 1.37l-.24.67c-.22.59-.51 1.38-1.39 1.57h-.16a4.48 4.48 0 0 1-.64.07 2.51 2.51 0 0 1-1.13-.3.15.15 0 0 1 0 .09 1.6 1.6 0 0 1-1.52.9h-.12a4.49 4.49 0 0 0-.88.33l-.13.06h-.05a2.33 2.33 0 0 1-2.49 2zm-.44-.86l-.21.12zm-1.67-3.13zm1.47-2.37l.16.07a1.7 1.7 0 0 1 .92 1.47 3.84 3.84 0 0 1 0 .5 7.22 7.22 0 0 1 .93-.45 8.68 8.68 0 0 1 1-.4l-.12-.21-.06-.14-.06-.14-.07-.05a3.83 3.83 0 0 1-.48-.43 7.23 7.23 0 0 1-1-.49l-.51-.15h-.14a1.7 1.7 0 0 1-.57.42zm-5.23-1.34zm-7-.5V28a1.62 1.62 0 0 1 0 .22l.12-.16a.69.69 0 0 1 .11-.13zm2.69-.36zm0 0zm10.63-1.2zm-2.95-.51h.13a6.3 6.3 0 0 1 1.15.21 1.65 1.65 0 0 1 .49-.54 1.6 1.6 0 0 1 1.7-.08h.18a4.38 4.38 0 0 1 .81.24h.19a1.29 1.29 0 0 1 .33-.17 2.22 2.22 0 0 1 1-1l.36-.21.57-.34c.31-.16.65-.31 1-.44a5.46 5.46 0 0 0 .5-.22l.15-.1c.39-.26.93-.62 1.14-.74a1.33 1.33 0 0 1 .43-.17 3.33 3.33 0 0 0 .63-.21 5.57 5.57 0 0 1 .62-.23 4 4 0 0 1 1-.57 2.85 2.85 0 0 1 .69-1.24c.3-.35.52-.6.7-.79a2.66 2.66 0 0 1 .06-.24 1.89 1.89 0 0 1 1.34-1.14 7.29 7.29 0 0 1 1.77-.44 6.82 6.82 0 0 0-.26-.88 4.43 4.43 0 0 1-.21-1.34 1.09 1.09 0 0 1 0-.18c0-.07-.07-.15-.1-.23a1.78 1.78 0 0 1 0-1.77 2.84 2.84 0 0 1-.75-.34l-.86-.52h-.77a1.16 1.16 0 0 1-.3.18 1.84 1.84 0 0 1-2.12-.68l-.67-.73-.41-.35-.25.07a2 2 0 0 1-1.68.52 13.44 13.44 0 0 1-1.65-.18h-1c-1.39 0-1.72-1.45-1.84-2v-.1a1.67 1.67 0 0 0-.18-.44l-.06-.09a2.3 2.3 0 0 1-.16-.37l-.24-.1H35a3.26 3.26 0 0 0-.38 0A1.87 1.87 0 0 1 33 7.46 1.83 1.83 0 0 1 32.41 6v-.27a1.93 1.93 0 0 1-.41-.79 1.83 1.83 0 0 1 .13-1.22 1.54 1.54 0 0 1-.93-.32l-.2.06a7.6 7.6 0 0 1-1.43.3h-.12a2.2 2.2 0 0 1-1.72.61 6.14 6.14 0 0 1-1 0 2.21 2.21 0 0 1-.31.39 4.45 4.45 0 0 1 .12 1.15.57.57 0 0 1 0 .13 2.45 2.45 0 0 1-.92 1.67 1.53 1.53 0 0 1-1.38.29 1.49 1.49 0 0 1-.95-.8 2.74 2.74 0 0 1-1.48-.08 9 9 0 0 0-1.45-.35 1.39 1.39 0 0 1-.36-.11l-.44-.16a2.41 2.41 0 0 1-1.52-.14h-.11a5.34 5.34 0 0 0-1.22-.42 3.24 3.24 0 0 1-.83-.22 2.51 2.51 0 0 0-.46-.14 7.19 7.19 0 0 1-2-.55 9.55 9.55 0 0 0-.92-.26l-.5-.19a12.46 12.46 0 0 0-1.61-.38h-.06l-.72.22a4.66 4.66 0 0 0-.49.16l-.23.09v.21a3.08 3.08 0 0 1 .11.74 2.42 2.42 0 0 1-.21.94 2.81 2.81 0 0 1 0 1.33 1.58 1.58 0 0 1 .29.79 2.16 2.16 0 0 1-.74 1.65 10.21 10.21 0 0 1-1.84 1.44 7 7 0 0 1-.78.48l-.25.15a2.94 2.94 0 0 1-.3.42l-.07.09a2.26 2.26 0 0 1-.24 1.79l-.07.09a2.5 2.5 0 0 1-.91.74 7.12 7.12 0 0 1-.63 1.05.86.86 0 0 0-.1.16 2.61 2.61 0 0 1 .27.3h.51a2 2 0 0 1 2 .24 6.29 6.29 0 0 1 .56.4 2.15 2.15 0 0 1 1.35.13 1.59 1.59 0 0 0 .47.08 2.46 2.46 0 0 1 1 .28 2 2 0 0 1 2.07-.29h.06a2.29 2.29 0 0 1 .43-.33 3 3 0 0 1 .63-.45 2.43 2.43 0 0 1 1.74-.56 1 1 0 0 1 .24 0 4.58 4.58 0 0 0 1.28 0 3.65 3.65 0 0 1 2.07 0 3.82 3.82 0 0 1 1.17.66 4.08 4.08 0 0 0 .49.28 5.67 5.67 0 0 1 2 1 1.75 1.75 0 0 1 .24.23l.08.1a2.47 2.47 0 0 1 .65 2.35 2.65 2.65 0 0 1 .61.78c.11.2.19.32.25.41a2.27 2.27 0 0 1 .48 1.45.5.5 0 0 0 .09.29l.09.14q.15.29.27.54c.14-.09.28-.16.39-.22a4.71 4.71 0 0 0 .46-.28 2.1 2.1 0 0 1 1.25-.43h.15a2.75 2.75 0 0 1 0-.53v-.1a1.27 1.27 0 0 1 0-.2v-.3a1.49 1.49 0 0 1 .5-1.12 1.51 1.51 0 0 1 1.18-.37A1.86 1.86 0 0 1 30.05 23v.67a.37.37 0 0 1 0 .11 1.45 1.45 0 0 1 0 .28 1.5 1.5 0 0 1 1 .35 2 2 0 0 1 .71 1.43zm3.53-.36zm-8.7-2.14zM13.39 20.2zM3.15 17.1L3 18.59l.21-1.47zm45-2.53zM8.73 6.3zM23 4.34zm4.07-.22zM16.93 2.91zm7.18 0zm-13.57-1.7z" fill="#ff8900"/></symbol><symbol id="sprite-vk" viewBox="0 0 548.358 548.358"><title>vk</title><path d="M545.451 400.298c-.664-1.431-1.283-2.618-1.858-3.569-9.514-17.135-27.695-38.167-54.532-63.102l-.567-.571-.284-.28-.287-.287h-.288c-12.18-11.611-19.893-19.418-23.123-23.415-5.91-7.614-7.234-15.321-4.004-23.13 2.282-5.9 10.854-18.36 25.696-37.397 7.807-10.089 13.99-18.175 18.556-24.267 32.931-43.78 47.208-71.756 42.828-83.939l-1.701-2.847c-1.143-1.714-4.093-3.282-8.846-4.712-4.764-1.427-10.853-1.663-18.278-.712l-82.224.568c-1.332-.472-3.234-.428-5.712.144l-3.713.859-1.431.715-1.136.859c-.952.568-1.999 1.567-3.142 2.995-1.137 1.423-2.088 3.093-2.848 4.996-8.952 23.031-19.13 44.444-30.553 64.238-7.043 11.803-13.511 22.032-19.418 30.693-5.899 8.658-10.848 15.037-14.842 19.126-4 4.093-7.61 7.372-10.852 9.849-3.237 2.478-5.708 3.525-7.419 3.142-1.715-.383-3.33-.763-4.859-1.143-2.663-1.714-4.805-4.045-6.42-6.995-1.622-2.95-2.714-6.663-3.285-11.136-.568-4.476-.904-8.326-1-11.563-.089-3.233-.048-7.806.145-13.706.198-5.903.287-9.897.287-11.991 0-7.234.141-15.085.424-23.555.288-8.47.521-15.181.716-20.125.194-4.949.284-10.185.284-15.705s-.336-9.849-1-12.991a44.442 44.442 0 0 0-2.99-9.137c-1.335-2.95-3.289-5.232-5.853-6.852-2.569-1.618-5.763-2.902-9.564-3.856-10.089-2.283-22.936-3.518-38.547-3.71-35.401-.38-58.148 1.906-68.236 6.855-3.997 2.091-7.614 4.948-10.848 8.562-3.427 4.189-3.905 6.475-1.431 6.851 11.422 1.711 19.508 5.804 24.267 12.275l1.715 3.429c1.334 2.474 2.666 6.854 3.999 13.134 1.331 6.28 2.19 13.227 2.568 20.837.95 13.897.95 25.793 0 35.689-.953 9.9-1.853 17.607-2.712 23.127-.859 5.52-2.143 9.993-3.855 13.418-1.715 3.426-2.856 5.52-3.428 6.28-.571.76-1.047 1.239-1.425 1.427a21.387 21.387 0 0 1-7.71 1.431c-2.667 0-5.901-1.334-9.707-4-3.805-2.666-7.754-6.328-11.847-10.992-4.093-4.665-8.709-11.184-13.85-19.558-5.137-8.374-10.467-18.271-15.987-29.691l-4.567-8.282c-2.855-5.328-6.755-13.086-11.704-23.267-4.952-10.185-9.329-20.037-13.134-29.554-1.521-3.997-3.806-7.04-6.851-9.134l-1.429-.859c-.95-.76-2.475-1.567-4.567-2.427a30.301 30.301 0 0 0-6.567-1.854l-78.229.568c-7.994 0-13.418 1.811-16.274 5.428l-1.143 1.711c-.571.953-.859 2.475-.859 4.57 0 2.094.571 4.664 1.714 7.707 11.42 26.84 23.839 52.725 37.257 77.659 13.418 24.934 25.078 45.019 34.973 60.237 9.897 15.229 19.985 29.602 30.264 43.112 10.279 13.515 17.083 22.176 20.412 25.981 3.333 3.812 5.951 6.662 7.854 8.565l7.139 6.851c4.568 4.569 11.276 10.041 20.127 16.416 8.853 6.379 18.654 12.659 29.408 18.85 10.756 6.181 23.269 11.225 37.546 15.126 14.275 3.905 28.169 5.472 41.684 4.716h32.834c6.659-.575 11.704-2.669 15.133-6.283l1.136-1.431c.764-1.136 1.479-2.901 2.139-5.276.668-2.379 1-5 1-7.851-.195-8.183.428-15.558 1.852-22.124 1.423-6.564 3.045-11.513 4.859-14.846 1.813-3.33 3.859-6.14 6.136-8.418 2.282-2.283 3.908-3.666 4.862-4.142.948-.479 1.705-.804 2.276-.999 4.568-1.522 9.944-.048 16.136 4.429 6.187 4.473 11.99 9.996 17.418 16.56 5.425 6.57 11.943 13.941 19.555 22.124 7.617 8.186 14.277 14.271 19.985 18.274l5.708 3.426c3.812 2.286 8.761 4.38 14.853 6.283 6.081 1.902 11.409 2.378 15.984 1.427l73.087-1.14c7.229 0 12.854-1.197 16.844-3.572 3.998-2.379 6.373-5 7.139-7.851.764-2.854.805-6.092.145-9.712-.677-3.611-1.344-6.136-2.008-7.563z"/></symbol><symbol id="sprite-youtube" viewBox="0 0 310 310"><title>youtube</title><path d="M297.917 64.645c-11.19-13.302-31.85-18.728-71.306-18.728H83.386c-40.359 0-61.369 5.776-72.517 19.938C0 79.663 0 100.008 0 128.166v53.669c0 54.551 12.896 82.248 83.386 82.248h143.226c34.216 0 53.176-4.788 65.442-16.527C304.633 235.518 310 215.863 310 181.835v-53.669c0-29.695-.841-50.16-12.083-63.521zm-98.896 97.765l-65.038 33.991a9.997 9.997 0 0 1-14.632-8.863v-67.764a10 10 0 0 1 14.609-8.874l65.038 33.772a10 10 0 0 1 .023 17.738z"/></symbol></svg>